<svg id="visual" viewBox="0 0 900 600" width="900" height="600" xmlns="http://www.w3.org/2000/svg" xmlns:xlink="http://www.w3.org/1999/xlink" version="1.1"><rect x="0" y="0" width="900" height="600" fill="#f0ead2"></rect><path d="M0 347L64 374L129 379L193 366L257 338L321 382L386 328L450 350L514 316L579 348L643 331L707 338L771 381L836 326L900 343L900 601L836 601L771 601L707 601L643 601L579 601L514 601L450 601L386 601L321 601L257 601L193 601L129 601L64 601L0 601Z" fill="#adc178"></path><path d="M0 335L64 334L129 356L193 401L257 390L321 400L386 355L450 393L514 359L579 401L643 377L707 345L771 379L836 383L900 399L900 601L836 601L771 601L707 601L643 601L579 601L514 601L450 601L386 601L321 601L257 601L193 601L129 601L64 601L0 601Z" fill="#b2c57e"></path><path d="M0 415L64 403L129 382L193 430L257 370L321 420L386 396L450 389L514 388L579 414L643 423L707 372L771 367L836 367L900 398L900 601L836 601L771 601L707 601L643 601L579 601L514 601L450 601L386 601L321 601L257 601L193 601L129 601L64 601L0 601Z" fill="#b7c884"></path><path d="M0 431L64 421L129 415L193 395L257 403L321 422L386 423L450 450L514 396L579 420L643 449L707 441L771 384L836 385L900 416L900 601L836 601L771 601L707 601L643 601L579 601L514 601L450 601L386 601L321 601L257 601L193 601L129 601L64 601L0 601Z" fill="#bbcc8b"></path><path d="M0 451L64 409L129 424L193 418L257 410L321 448L386 412L450 452L514 437L579 412L643 428L707 450L771 416L836 459L900 464L900 601L836 601L771 601L707 601L643 601L579 601L514 601L450 601L386 601L321 601L257 601L193 601L129 601L64 601L0 601Z" fill="#c0cf91"></path><path d="M0 444L64 449L129 462L193 442L257 435L321 462L386 445L450 453L514 432L579 467L643 469L707 444L771 450L836 453L900 488L900 601L836 601L771 601L707 601L643 601L579 601L514 601L450 601L386 601L321 601L257 601L193 601L129 601L64 601L0 601Z" fill="#c5d397"></path><path d="M0 503L64 468L129 462L193 480L257 475L321 465L386 469L450 490L514 501L579 462L643 503L707 480L771 465L836 490L900 470L900 601L836 601L771 601L707 601L643 601L579 601L514 601L450 601L386 601L321 601L257 601L193 601L129 601L64 601L0 601Z" fill="#cad79d"></path><path d="M0 489L64 484L129 505L193 486L257 500L321 520L386 485L450 525L514 492L579 527L643 520L707 508L771 527L836 487L900 511L900 601L836 601L771 601L707 601L643 601L579 601L514 601L450 601L386 601L321 601L257 601L193 601L129 601L64 601L0 601Z" fill="#cfdaa3"></path><path d="M0 533L64 520L129 529L193 538L257 540L321 508L386 514L450 506L514 539L579 513L643 553L707 510L771 548L836 531L900 530L900 601L836 601L771 601L707 601L643 601L579 601L514 601L450 601L386 601L321 601L257 601L193 601L129 601L64 601L0 601Z" fill="#d4dea9"></path><path d="M0 545L64 564L129 546L193 530L257 568L321 534L386 555L450 560L514 567L579 565L643 567L707 573L771 556L836 556L900 555L900 601L836 601L771 601L707 601L643 601L579 601L514 601L450 601L386 601L321 601L257 601L193 601L129 601L64 601L0 601Z" fill="#d8e1b0"></path><path d="M0 577L64 572L129 590L193 556L257 569L321 555L386 567L450 569L514 563L579 558L643 557L707 560L771 556L836 571L900 576L900 601L836 601L771 601L707 601L643 601L579 601L514 601L450 601L386 601L321 601L257 601L193 601L129 601L64 601L0 601Z" fill="#dde5b6"></path></svg>